<?xml version="1.0" encoding="utf-8"?>
<svg viewBox="0 0 512 992" xmlns="http://www.w3.org/2000/svg" xmlns:xlink="http://www.w3.org/1999/xlink">
  <defs>
    <pattern id="pattern-0" x="0" y="0" width="20" height="20" patternUnits="userSpaceOnUse" viewBox="0 0 100 100">
      <g transform="matrix(0.995907, 0, 0, 1, 0.444178, 0)">
        <path d="M -0.446 0 L 13.892 0 L 13.892 100 L -0.446 100 Z" style="fill: black;"/>
        <path d="M 11.604 0 L 25.942 0 L 25.942 100 L 11.604 100 Z" style="fill: rgb(37, 37, 37);"/>
        <path d="M 24.836 0 L 39.174 0 L 39.174 100 L 24.836 100 Z" style="fill: rgb(60, 60, 60);"/>
        <path d="M 37.575 0 L 51.913 0 L 51.913 100 L 37.575 100 Z" style="fill: rgb(86, 86, 86);"/>
        <path d="M 50.598 0 L 64.936 0 L 64.936 100 L 50.598 100 Z" style="fill: rgb(121, 121, 121);"/>
        <path d="M 63.338 0 L 77.676 0 L 77.676 100 L 63.338 100 Z" style="fill: rgb(154, 154, 154);"/>
        <path d="M 76.078 0 L 90.416 0 L 90.416 100 L 76.078 100 Z" style="fill: rgb(183, 183, 183);"/>
        <path d="M 88.61 0 L 99.965 0 L 99.965 100 L 88.61 100 Z" style="fill: rgb(214, 214, 214);"/>
      </g>
    </pattern>
    <pattern id="pattern-1" viewBox="0 0 100 100" patternUnits="userSpaceOnUse" preserveAspectRatio="none" width="100" height="100">
      <path d="M 0.037 0.02 L 33.37 0.02 L 33.37 100.02 L 0.037 100.02 Z" style="fill: rgb(137, 36, 95);"/>
      <path d="M 33.333 0 L 66.666 0 L 66.666 100 L 33.333 100 Z" style="fill: rgb(185, 96, 148);"/>
      <path d="M 66.65 0 L 99.99 0 L 99.99 100 L 66.65 100 Z" style="fill: rgb(255, 207, 235);"/>
    </pattern>
    <pattern id="pattern-2" viewBox="0 0 100 100" patternUnits="userSpaceOnUse" preserveAspectRatio="none" width="100" height="100">
      <path d="M 0 -0.065 L 14.279 -0.065 L 14.279 99.935 L 0 99.935 Z" style="fill: rgb(137, 36, 95);" transform="matrix(1, 0, 0, 1, -0.0000027343878628016682, 0.06499832123515148)"/>
      <path d="M 12.001 -0.065 L 26.28 -0.065 L 26.28 99.935 L 12.001 99.935 Z" style="fill: rgb(158, 46, 111);" transform="matrix(1, 0, 0, 1, -0.0000027343878628016682, 0.06499832123515148)"/>
      <path d="M 25.179 -0.065 L 39.458 -0.065 L 39.458 99.935 L 25.179 99.935 Z" style="fill: rgb(175, 54, 125);" transform="matrix(1, 0, 0, 1, -0.0000027343878628016682, 0.06499832123515148)"/>
      <path d="M 37.865 -0.065 L 52.145 -0.065 L 52.145 99.935 L 37.865 99.935 Z" style="fill: rgb(189, 63, 136);" transform="matrix(1, 0, 0, 1, -0.0000027343878628016682, 0.06499832123515148)"/>
      <path d="M 50.835 -0.065 L 65.114 -0.065 L 65.114 99.935 L 50.835 99.935 Z" style="fill: rgb(202, 82, 152);" transform="matrix(1, 0, 0, 1, -0.0000027343878628016682, 0.06499832123515148)"/>
      <path d="M 63.523 -0.065 L 77.802 -0.065 L 77.802 99.935 L 63.523 99.935 Z" style="fill: rgb(214, 102, 167);" transform="matrix(1, 0, 0, 1, -0.0000027343878628016682, 0.06499832123515148)"/>
      <path d="M 76.211 -0.065 L 90.49 -0.065 L 90.49 99.935 L 76.211 99.935 Z" style="fill: rgb(220, 115, 176);" transform="matrix(1, 0, 0, 1, -0.0000027343878628016682, 0.06499832123515148)"/>
      <path d="M 88.691 -0.065 L 100 -0.065 L 100 99.935 L 88.691 99.935 Z" style="fill: rgb(224, 133, 186);" transform="matrix(1, 0, 0, 1, -0.0000027343878628016682, 0.06499832123515148)"/>
    </pattern>
    <style id="bx-google-fonts">@import url(https://fonts.googleapis.com/css?family=Yanone+Kaffeesatz:200,300,400,700);</style>
    <pattern id="pattern-4" patternTransform="matrix(0.24257, 0.242791, -0.245804, 0.23901, 302.954865, 210.32962)" xlink:href="#pattern-1"/>
    <pattern id="pattern-5" patternTransform="matrix(0.24257, 0.242791, -0.245804, 0.23901, 302.954865, 210.32962)" xlink:href="#pattern-1"/>
    <pattern id="pattern-3" patternTransform="matrix(0.24257, 0.242791, -0.245804, 0.23901, 302.954865, 210.32962)" xlink:href="#pattern-1"/>
    <pattern id="pattern-9" viewBox="0 0 100 100" patternUnits="userSpaceOnUse" preserveAspectRatio="none" width="100" height="100">
      <path d="M 66.65 0 L 99.983 0 L 99.983 100 L 66.65 100 Z" style="fill: rgb(150, 54, 110);"/>
      <path d="M 33.333 0 L 66.666 0 L 66.666 100 L 33.333 100 Z" style="fill: rgb(201, 117, 166);"/>
      <path d="M 0 0 L 33.34 0 L 33.34 100 L 0 100 Z" style="fill: rgb(255, 207, 235);"/>
    </pattern>
    <pattern id="pattern-10" patternTransform="matrix(0.242584, 0.243178, -0.245744, 0.239388, 168.455078, 535.604187)" xlink:href="#pattern-9"/>
    <pattern id="pattern-11" patternTransform="matrix(0.242584, 0.243178, -0.245744, 0.239388, 168.455078, 535.604187)" xlink:href="#pattern-9"/>
    <pattern id="pattern-12" patternTransform="matrix(0.242584, 0.243178, -0.245744, 0.239388, 168.455078, 535.604187)" xlink:href="#pattern-9"/>
    <pattern id="pattern-6" patternTransform="matrix(0.242584, 0.243178, -0.245744, 0.239388, 168.455078, 535.604187)" xlink:href="#pattern-9"/>
    <pattern id="pattern-7" patternTransform="matrix(0.24257, 0.242791, -0.245804, 0.23901, 302.954865, 210.32962)" xlink:href="#pattern-1"/>
  </defs>
  <g transform="matrix(1, 0, 0, 1, -135.662537, -24.340603)">
    <path d="M 155.948 279.885 L 156.129 189.73 L 178.277 250.358 L 199.816 189.974 L 199.765 279.909" style="fill: none; stroke-width: 7; stroke-linecap: round; stroke-linejoin: round; stroke: rgb(137, 36, 95);"/>
    <path d="M 280.987 186.533 L 302.817 186.722 C 314.108 187.291 323.855 206.476 324.051 225.708 L 324.051 241.383 C 324.206 257.562 321.342 282.573 304.773 282.764 L 280.987 282.764 C 279.475 282.764 278.249 281.577 278.249 280.114 L 278.249 189.183 C 278.249 187.719 279.475 186.533 280.987 186.533 Z" style="fill: url(#pattern-5);"/>
    <path d="M 236.308 280.947 C 237.322 284.296 243.916 284.338 244.942 280.916 L 268.245 192.215 C 269.459 186.655 267.149 186.671 262.447 186.654 L 218.714 186.657 C 214.639 186.671 211.427 186.59 212.916 192.055 L 236.308 280.947 Z" style="fill: rgb(137, 36, 95);"/>
  </g>
  <text x="359.152" y="271.572" style="fill: rgb(137, 36, 95); font-family: &quot;Yanone Kaffeesatz&quot;; font-size: 107px; font-weight: bold; white-space: pre;" transform="matrix(1.291493, 0, 0, 1.255084, -243.269958, -83.519791)">Pledge</text>
  <g transform="matrix(1, 0, 0, 1, -134.89418, 121.283989)">
    <path d="M 155.948 279.885 L 156.129 189.73 L 178.277 250.358 L 199.816 189.974 L 199.765 279.909" style="fill: none; stroke-width: 7; stroke-linecap: round; stroke-linejoin: round; stroke: rgb(137, 36, 95);"/>
    <path d="M 280.987 186.533 L 302.817 186.722 C 314.108 187.291 323.855 206.476 324.051 225.708 L 324.051 241.383 C 324.206 257.562 321.342 282.573 304.773 282.764 L 280.987 282.764 C 279.475 282.764 278.249 281.577 278.249 280.114 L 278.249 189.183 C 278.249 187.719 279.475 186.533 280.987 186.533 Z" style="fill: url(#pattern-4);"/>
    <path d="M 236.308 280.947 C 237.322 284.296 243.916 284.338 244.942 280.916 L 268.245 192.215 C 269.459 186.655 267.149 186.671 262.447 186.654 L 218.714 186.657 C 214.639 186.671 211.427 186.59 212.916 192.055 L 236.308 280.947 Z" style="fill: rgb(137, 36, 95);"/>
  </g>
  <text x="359.152" y="271.572" style="fill: rgb(137, 36, 95); font-family: &quot;Yanone Kaffeesatz&quot;; font-size: 107px; font-weight: bold; white-space: pre;" transform="matrix(0.840616, 0, 0, 0.816916, -286.797821, 256.217163)">Pledge</text>
  <g transform="matrix(1, 0, 0, 1, -133.745209, -167.253265)">
    <path d="M 155.948 279.885 L 156.129 189.73 L 178.277 250.358 L 199.816 189.974 L 199.765 279.909" style="fill: none; stroke-width: 7; stroke-linecap: round; stroke-linejoin: round; stroke: rgb(137, 36, 95);"/>
    <path d="M 280.987 186.533 L 302.817 186.722 C 314.108 187.291 323.855 206.476 324.051 225.708 L 324.051 241.383 C 324.206 257.562 321.342 282.573 304.773 282.764 L 280.987 282.764 C 279.475 282.764 278.249 281.577 278.249 280.114 L 278.249 189.183 C 278.249 187.719 279.475 186.533 280.987 186.533 Z" style="fill: url(#pattern-3);"/>
    <path d="M 236.308 280.947 C 237.322 284.296 243.916 284.338 244.942 280.916 L 268.245 192.215 C 269.459 186.655 267.149 186.671 262.447 186.654 L 218.714 186.657 C 214.639 186.671 211.427 186.59 212.916 192.055 L 236.308 280.947 Z" style="fill: rgb(137, 36, 95);"/>
  </g>
  <rect width="512" height="491.655" y="500.345" style="fill: rgb(137, 36, 95);"/>
  <g transform="matrix(1, 0, 0, 1, -1.918998, 142.909927)">
    <path d="M 21.439 605.273 L 21.62 515.118 L 43.768 575.746 L 65.307 515.362 L 65.256 605.297" style="fill: none; stroke-width: 7; stroke-linecap: round; stroke-linejoin: round; stroke: rgb(255, 207, 235);"/>
    <path d="M 101.799 606.335 C 102.813 609.684 109.407 609.726 110.433 606.304 L 133.736 517.603 C 134.95 512.043 132.64 512.059 127.938 512.042 L 84.205 512.045 C 80.13 512.059 76.918 511.978 78.407 517.443 L 101.799 606.335 Z" style="fill: rgb(255, 207, 235);"/>
    <path d="M 146.485 511.924 L 168.312 512.114 C 179.603 512.684 189.353 531.744 189.551 551.007 L 189.553 566.708 C 189.711 582.912 186.85 607.964 170.283 608.154 L 146.5 608.154 C 144.989 608.154 143.762 606.965 143.762 605.499 L 143.748 514.579 C 143.748 513.113 144.974 511.924 146.485 511.924 Z" style="fill: url(#pattern-11);" transform="matrix(1, 0.000172, -0.000172, 1, 0.096374, -0.02867)"/>
  </g>
  <text x="359.152" y="271.572" transform="matrix(1.291493, 0, 0, 1.255084, -244.034058, 409.121521)" style="fill: rgb(255, 207, 235); font-family: &quot;Yanone Kaffeesatz&quot;; font-size: 107px; font-weight: bold; white-space: pre;">Pledge</text>
  <g transform="matrix(1, 0, 0, 1, -1.149, 288.539917)">
    <path d="M 21.439 605.273 L 21.62 515.118 L 43.768 575.746 L 65.307 515.362 L 65.256 605.297" style="fill: none; stroke-width: 7; stroke-linecap: round; stroke-linejoin: round; stroke: rgb(255, 207, 235);"/>
    <path d="M 101.799 606.335 C 102.813 609.684 109.407 609.726 110.433 606.304 L 133.736 517.603 C 134.95 512.043 132.64 512.059 127.938 512.042 L 84.205 512.045 C 80.13 512.059 76.918 511.978 78.407 517.443 L 101.799 606.335 Z" style="fill: rgb(255, 207, 235);"/>
    <path d="M 146.485 511.924 L 168.312 512.114 C 179.603 512.684 189.353 531.744 189.551 551.007 L 189.553 566.708 C 189.711 582.912 186.85 607.964 170.283 608.154 L 146.5 608.154 C 144.989 608.154 143.762 606.965 143.762 605.499 L 143.748 514.579 C 143.748 513.113 144.974 511.924 146.485 511.924 Z" style="fill: url(#pattern-12);" transform="matrix(1, 0.000172, -0.000172, 1, 0.096374, -0.02867)"/>
  </g>
  <text x="359.152" y="271.572" transform="matrix(0.840616, 0, 0, 0.816916, -286.799377, 748.788208)" style="fill: rgb(255, 207, 235); font-family: &quot;Yanone Kaffeesatz&quot;; font-size: 107px; font-weight: bold; white-space: pre;">Pledge</text>
  <g>
    <path d="M 21.439 605.273 L 21.62 515.118 L 43.768 575.746 L 65.307 515.362 L 65.256 605.297" style="fill: none; stroke-width: 7; stroke-linecap: round; stroke-linejoin: round; stroke: rgb(255, 207, 235);"/>
    <path d="M 101.799 606.335 C 102.813 609.684 109.407 609.726 110.433 606.304 L 133.736 517.603 C 134.95 512.043 132.64 512.059 127.938 512.042 L 84.205 512.045 C 80.13 512.059 76.918 511.978 78.407 517.443 L 101.799 606.335 Z" style="fill: rgb(255, 207, 235);"/>
    <path d="M 146.485 511.924 L 168.312 512.114 C 179.603 512.684 189.353 531.744 189.551 551.007 L 189.553 566.708 C 189.711 582.912 186.85 607.964 170.283 608.154 L 146.5 608.154 C 144.989 608.154 143.762 606.965 143.762 605.499 L 143.748 514.579 C 143.748 513.113 144.974 511.924 146.485 511.924 Z" style="fill: url(#pattern-10);" transform="matrix(1, 0.000172, -0.000172, 1, 0.096374, -0.02867)"/>
  </g>
  <g transform="matrix(1, 0, 0, 1, 300.65744, 1.47571)">
    <path d="M 21.439 605.273 L 21.62 515.118 L 43.768 575.746 L 65.307 515.362 L 65.256 605.297" style="fill: none; stroke-width: 7; stroke-linecap: round; stroke-linejoin: round; stroke: rgb(255, 207, 235); fill-opacity: 0.5; stroke-opacity: 0.5;"/>
    <path d="M 101.799 606.335 C 102.813 609.684 109.407 609.726 110.433 606.304 L 133.736 517.603 C 134.95 512.043 132.64 512.059 127.938 512.042 L 84.205 512.045 C 80.13 512.059 76.918 511.978 78.407 517.443 L 101.799 606.335 Z" style="fill: rgb(255, 207, 235); fill-opacity: 0.5; stroke-opacity: 0.5;"/>
    <path d="M 146.485 511.924 L 168.312 512.114 C 179.603 512.684 189.353 531.744 189.551 551.007 L 189.553 566.708 C 189.711 582.912 186.85 607.964 170.283 608.154 L 146.5 608.154 C 144.989 608.154 143.762 606.965 143.762 605.499 L 143.748 514.579 C 143.748 513.113 144.974 511.924 146.485 511.924 Z" style="fill: url(#pattern-6); fill-opacity: 0.5; stroke-opacity: 0.5;" transform="matrix(1, 0.000172, -0.000172, 1, 0.096374, -0.02867)"/>
  </g>
  <g transform="matrix(1, 0, 0, 1, 167.85434, -169.696457)">
    <path d="M 155.948 279.885 L 156.129 189.73 L 178.277 250.358 L 199.816 189.974 L 199.765 279.909" style="fill: none; stroke-width: 7; stroke-linecap: round; stroke-linejoin: round; stroke: rgb(137, 36, 95); stroke-opacity: 0.5; fill-opacity: 0.5;"/>
    <path d="M 280.987 186.533 L 302.817 186.722 C 314.108 187.291 323.855 206.476 324.051 225.708 L 324.051 241.383 C 324.206 257.562 321.342 282.573 304.773 282.764 L 280.987 282.764 C 279.475 282.764 278.249 281.577 278.249 280.114 L 278.249 189.183 C 278.249 187.719 279.475 186.533 280.987 186.533 Z" style="fill: url(#pattern-7); stroke-opacity: 0.5; fill-opacity: 0.5;"/>
    <path d="M 236.308 280.947 C 237.322 284.296 243.916 284.338 244.942 280.916 L 268.245 192.215 C 269.459 186.655 267.149 186.671 262.447 186.654 L 218.714 186.657 C 214.639 186.671 211.427 186.59 212.916 192.055 L 236.308 280.947 Z" style="fill: rgb(137, 36, 95); stroke-opacity: 0.5; fill-opacity: 0.5;"/>
  </g>
</svg>